
<svg xmlns="http://www.w3.org/2000/svg" xmlns:xlink="http://www.w3.org/1999/xlink" version="1.1" width="1000" height="1000" viewBox="0 0 1000 1000" xml:space="preserve">
<desc>Created with Fabric.js 3.5.0</desc>
<defs>
</defs>
<rect x="0" y="0" width="100%" height="100%" fill="#ffffff"/>
<g transform="matrix(5.2909 0 0 5.2909 499.9957 499.9989)" id="782491">
<g style="" vector-effect="non-scaling-stroke">
		<g transform="matrix(1 0 0 1 -64.87 0)" id="Layer_1-2">
<rect style="stroke: none; stroke-width: 1; stroke-dasharray: none; stroke-linecap: butt; stroke-dashoffset: 0; stroke-linejoin: miter; stroke-miterlimit: 4; is-custom-font: none; font-file-url: none; fill: rgb(255,255,255); fill-rule: nonzero; opacity: 1;" x="-21.04" y="-21.04" rx="9.21" ry="9.21" width="42.08" height="42.08"/>
</g>
		<g transform="matrix(1 0 0 1 -33.4 0.065)" id="Layer_1-2">
<polygon style="stroke: none; stroke-width: 1; stroke-dasharray: none; stroke-linecap: butt; stroke-dashoffset: 0; stroke-linejoin: miter; stroke-miterlimit: 4; is-custom-font: none; font-file-url: none; fill: rgb(255,255,255); fill-rule: nonzero; opacity: 1;" points="3.07,-6.105 -0.07,-6.105 -0.3,-6.105 -3.07,-6.105 -3.07,6.105 -0.07,6.105 -0.07,-3.045 3.07,-3.045 3.07,-6.105 "/>
</g>
		<g transform="matrix(1 0 0 1 54.0899 0.0601)" id="Layer_1-2">
<path style="stroke: none; stroke-width: 1; stroke-dasharray: none; stroke-linecap: butt; stroke-dashoffset: 0; stroke-linejoin: miter; stroke-miterlimit: 4; is-custom-font: none; font-file-url: none; fill: rgb(255,255,255); fill-rule: nonzero; opacity: 1;" transform=" translate(-139.9999, -21.1001)" d="M 140 15 a 6.1 6.1 0 1 0 6.1 6.1 A 6.1 6.1 0 0 0 140 15 Z m 0 9.15 a 3 3 0 1 1 3 -3 A 3 3 0 0 1 140 24.15 Z" stroke-linecap="round"/>
</g>
		<g transform="matrix(1 0 0 1 68.4299 0.0601)" id="Layer_1-2">
<path style="stroke: none; stroke-width: 1; stroke-dasharray: none; stroke-linecap: butt; stroke-dashoffset: 0; stroke-linejoin: miter; stroke-miterlimit: 4; is-custom-font: none; font-file-url: none; fill: rgb(255,255,255); fill-rule: nonzero; opacity: 1;" transform=" translate(-154.3399, -21.1001)" d="M 154.34 15 a 6.1 6.1 0 1 0 6.1 6.1 A 6.1 6.1 0 0 0 154.34 15 Z m 0 9.15 a 3 3 0 1 1 3 -3 A 3 3 0 0 1 154.34 24.15 Z" stroke-linecap="round"/>
</g>
		<g transform="matrix(1 0 0 1 -8.4318 0.065)" id="Layer_1-2">
<path style="stroke: none; stroke-width: 1; stroke-dasharray: none; stroke-linecap: butt; stroke-dashoffset: 0; stroke-linejoin: miter; stroke-miterlimit: 4; is-custom-font: none; font-file-url: none; fill: rgb(255,255,255); fill-rule: nonzero; opacity: 1;" transform=" translate(-77.4781, -21.105)" d="M 80.21 22.64 a 3 3 0 1 1 0 -3.07 h 3.27 a 6.1 6.1 0 1 0 0 3.07 Z" stroke-linecap="round"/>
</g>
		<g transform="matrix(1 0 0 1 1.235 0.065)" id="Layer_1-2">
<rect style="stroke: none; stroke-width: 1; stroke-dasharray: none; stroke-linecap: butt; stroke-dashoffset: 0; stroke-linejoin: miter; stroke-miterlimit: 4; is-custom-font: none; font-file-url: none; fill: rgb(255,255,255); fill-rule: nonzero; opacity: 1;" x="-1.515" y="-6.105" rx="0" ry="0" width="3.03" height="12.21"/>
</g>
		<g transform="matrix(1 0 0 1 39.7361 -1.465)" id="Layer_1-2">
<path style="stroke: none; stroke-width: 1; stroke-dasharray: none; stroke-linecap: butt; stroke-dashoffset: 0; stroke-linejoin: miter; stroke-miterlimit: 4; is-custom-font: none; font-file-url: none; fill: rgb(255,255,255); fill-rule: nonzero; opacity: 1;" transform=" translate(-125.6461, -19.575)" d="M 125.63 15 a 6.07 6.07 0 0 0 -3.07 0.84 v -3.9 h -3 V 27.21 h 3 v -0.84 A 6.1 6.1 0 1 0 125.63 15 Z m 0 9.15 a 3 3 0 1 1 3 -3 A 3 3 0 0 1 125.63 24.15 Z" stroke-linecap="round"/>
</g>
		<g transform="matrix(1 0 0 1 11 1.5926)" id="Layer_1-2">
<path style="stroke: none; stroke-width: 1; stroke-dasharray: none; stroke-linecap: butt; stroke-dashoffset: 0; stroke-linejoin: miter; stroke-miterlimit: 4; is-custom-font: none; font-file-url: none; fill: rgb(255,255,255); fill-rule: nonzero; opacity: 1;" transform=" translate(-96.91, -22.6327)" d="M 103 21.1 a 6.1 6.1 0 0 0 -9.18 -5.27 V 15 h -3 V 30.27 h 3 v -3.9 A 6.1 6.1 0 0 0 103 21.1 Z m -3.06 0 a 3 3 0 1 1 -3 -3 A 3 3 0 0 1 100 21.1 Z" stroke-linecap="round"/>
</g>
		<g transform="matrix(1 0 0 1 81.33 -1.465)" id="Layer_1-2">
<polygon style="stroke: none; stroke-width: 1; stroke-dasharray: none; stroke-linecap: butt; stroke-dashoffset: 0; stroke-linejoin: miter; stroke-miterlimit: 4; is-custom-font: none; font-file-url: none; fill: rgb(255,255,255); fill-rule: nonzero; opacity: 1;" points="4.58,-3.055 1.08,-3.055 -1.55,1.535 -1.55,-7.625 -4.58,-7.625 -4.58,7.625 -1.55,7.625 -1.55,4.565 0.76,7.625 4.58,7.625 1.09,3.025 4.58,-3.055 "/>
</g>
		<g transform="matrix(1 0 0 1 25.3613 0.0605)" id="Layer_1-2">
<path style="stroke: none; stroke-width: 1; stroke-dasharray: none; stroke-linecap: butt; stroke-dashoffset: 0; stroke-linejoin: miter; stroke-miterlimit: 4; is-custom-font: none; font-file-url: none; fill: rgb(255,255,255); fill-rule: nonzero; opacity: 1;" transform=" translate(-111.2713, -21.1005)" d="M 111.27 15 a 6.1 6.1 0 1 0 5.53 8.68 h -3.87 a 3.05 3.05 0 0 1 -4.32 -1 h 8.56 a 6.09 6.09 0 0 0 -5.9 -7.64 Z m -2.66 4.57 a 3.07 3.07 0 0 1 5.31 0 Z" stroke-linecap="round"/>
</g>
		<g transform="matrix(1 0 0 1 -22.6833 0.0605)" id="Layer_1-2">
<path style="stroke: none; stroke-width: 1; stroke-dasharray: none; stroke-linecap: butt; stroke-dashoffset: 0; stroke-linejoin: miter; stroke-miterlimit: 4; is-custom-font: none; font-file-url: none; fill: rgb(255,255,255); fill-rule: nonzero; opacity: 1;" transform=" translate(-63.2266, -21.1004)" d="M 63.22 15 a 6.1 6.1 0 1 0 5.53 8.68 H 64.88 a 3.05 3.05 0 0 1 -4.32 -1 h 8.56 A 6.09 6.09 0 0 0 63.22 15 Z m -2.66 4.57 a 3.07 3.07 0 0 1 5.31 0 Z" stroke-linecap="round"/>
</g>
		<g transform="matrix(1 0 0 1 -65.0058 12.16)" id="Layer_1-2">
<linearGradient id="SVGID_4" gradientUnits="userSpaceOnUse" gradientTransform="matrix(1 0 0 1 0 0)" x1="20.9" y1="24.3" x2="20.9" y2="42.12">
<stop offset="0%" style="stop-color:rgb(255,155,14);stop-opacity: 1"/>
<stop offset="100%" style="stop-color:rgb(253,116,13);stop-opacity: 1"/>
</linearGradient>
<path style="stroke: none; stroke-width: 1; stroke-dasharray: none; stroke-linecap: butt; stroke-dashoffset: 0; stroke-linejoin: miter; stroke-miterlimit: 4; is-custom-font: none; font-file-url: none; fill: url(#SVGID_4); fill-rule: nonzero; opacity: 1;" transform=" translate(-20.9042, -33.2)" d="M 29.26 29.2 a 6.54 6.54 0 0 0 -5.69 -4.69 c -0.36 -0.05 -0.78 -0.14 -1.2 -0.17 c -0.19 0.84 -0.65 1.93 -1.71 2.07 l -0.29 0 c -1.18 0 -1.8 -1 -2.17 -1.91 a 6.54 6.54 0 0 0 -5.65 4.68 a 16.4 16.4 0 0 0 -0.41 5.94 a 57.83 57.83 0 0 0 0.92 6.94 H 28.75 a 57.83 57.83 0 0 0 0.92 -6.94 A 16.4 16.4 0 0 0 29.26 29.2 Z" stroke-linecap="round"/>
</g>
		<g transform="matrix(1 0 0 1 -62.5245 -3.4818)" id="Layer_1-2">
<path style="stroke: none; stroke-width: 1; stroke-dasharray: none; stroke-linecap: butt; stroke-dashoffset: 0; stroke-linejoin: miter; stroke-miterlimit: 4; is-custom-font: none; font-file-url: none; fill: rgb(67,165,72); fill-rule: nonzero; opacity: 1;" transform=" translate(-23.3855, -17.5582)" d="M 16.84 10.48 a 0.68 0.68 0 0 0 -0.35 0.68 c 0.27 2.6 0.6 5.21 1 7.79 a 23.46 23.46 0 0 0 1 4.36 c 0.35 1 0.78 2.6 2.08 2.42 c 1.14 -0.15 1.26 -2.4 1.26 -2.4 s 0 -4.73 2.13 -7.66 a 15.21 15.21 0 0 1 5.37 -4.3 a 1.81 1.81 0 0 0 0.82 -0.77 c 0.21 -0.39 0.26 -0.88 -0.47 -1.14 c -1.37 -0.5 -7.55 1 -9.6 8.15 l -0.87 -6.28 c 0 -0.2 0 -0.36 -0.22 -0.47 A 2.4 2.4 0 0 0 16.84 10.48 Z" stroke-linecap="round"/>
</g>
		<g transform="matrix(1 0 0 1 -70.4 7.64)" id="Layer_1-2">
<circle style="stroke: none; stroke-width: 1; stroke-dasharray: none; stroke-linecap: butt; stroke-dashoffset: 0; stroke-linejoin: miter; stroke-miterlimit: 4; is-custom-font: none; font-file-url: none; fill: rgb(254,119,13); fill-rule: nonzero; opacity: 1;" cx="0" cy="0" r="1.15"/>
</g>
		<g transform="matrix(1 0 0 1 -68.2 6.61)" id="Layer_1-2">
<circle style="stroke: none; stroke-width: 1; stroke-dasharray: none; stroke-linecap: butt; stroke-dashoffset: 0; stroke-linejoin: miter; stroke-miterlimit: 4; is-custom-font: none; font-file-url: none; fill: rgb(254,119,13); fill-rule: nonzero; opacity: 1;" cx="0" cy="0" r="0.35"/>
</g>
		<g transform="matrix(1 0 0 1 -71.54 10)" id="Layer_1-2">
<circle style="stroke: none; stroke-width: 1; stroke-dasharray: none; stroke-linecap: butt; stroke-dashoffset: 0; stroke-linejoin: miter; stroke-miterlimit: 4; is-custom-font: none; font-file-url: none; fill: rgb(254,119,13); fill-rule: nonzero; opacity: 1;" cx="0" cy="0" r="0.24"/>
</g>
		<g transform="matrix(1 0 0 1 -70.19 9.79)" id="Layer_1-2">
<circle style="stroke: none; stroke-width: 1; stroke-dasharray: none; stroke-linecap: butt; stroke-dashoffset: 0; stroke-linejoin: miter; stroke-miterlimit: 4; is-custom-font: none; font-file-url: none; fill: rgb(254,119,13); fill-rule: nonzero; opacity: 1;" cx="0" cy="0" r="0.2"/>
</g>
		<g transform="matrix(1 0 0 1 -70.79 11.25)" id="Layer_1-2">
<circle style="stroke: none; stroke-width: 1; stroke-dasharray: none; stroke-linecap: butt; stroke-dashoffset: 0; stroke-linejoin: miter; stroke-miterlimit: 4; is-custom-font: none; font-file-url: none; fill: rgb(254,119,13); fill-rule: nonzero; opacity: 1;" cx="0" cy="0" r="0.1"/>
</g>
		<g transform="matrix(1 0 0 1 -59.6717 12.3687)" id="Layer_1-2">
<linearGradient id="SVGID_5" gradientUnits="userSpaceOnUse" gradientTransform="matrix(1 0 0 1 0 0)" x1="26.23" y1="24.58" x2="26.23" y2="42.23">
<stop offset="0%" style="stop-color:rgb(254,139,13);stop-opacity: 1"/>
<stop offset="100%" style="stop-color:rgb(253,106,13);stop-opacity: 1"/>
</linearGradient>
<path style="stroke: none; stroke-width: 1; stroke-dasharray: none; stroke-linecap: butt; stroke-dashoffset: 0; stroke-linejoin: miter; stroke-miterlimit: 4; is-custom-font: none; font-file-url: none; fill: url(#SVGID_5); fill-rule: nonzero; opacity: 1;" transform=" translate(-26.2382, -33.4087)" d="M 28.75 42.08 H 26.14 s 2.3 -13.19 -2.39 -16 a 3.2 3.2 0 0 1 -0.8 -0.66 c -0.37 -0.44 -0.56 -0.95 1.08 -0.52 C 30 26.39 30.83 30.23 28.75 42.08 Z" stroke-linecap="round"/>
</g>
		<g transform="matrix(1 0 0 1 -72.6227 15.27)" id="Layer_1-2">
<linearGradient id="SVGID_6" gradientUnits="userSpaceOnUse" gradientTransform="matrix(1 0 0 1 0 0)" x1="12.96" y1="25.26" x2="13.36" y2="41.6">
<stop offset="0%" style="stop-color:rgb(254,139,13);stop-opacity: 1"/>
<stop offset="100%" style="stop-color:rgb(253,106,13);stop-opacity: 1"/>
</linearGradient>
<path style="stroke: none; stroke-width: 1; stroke-dasharray: none; stroke-linecap: butt; stroke-dashoffset: 0; stroke-linejoin: miter; stroke-miterlimit: 4; is-custom-font: none; font-file-url: none; fill: url(#SVGID_6); fill-rule: nonzero; opacity: 1;" transform=" translate(-13.2872, -36.31)" d="M 13.07 42.08 a 39.7 39.7 0 0 1 -0.85 -11.55 l 2.24 11.56 Z" stroke-linecap="round"/>
</g>
		<g transform="matrix(1 0 0 1 -60.45 12.615)" id="Layer_1-2">
<polygon style="stroke: none; stroke-width: 1; stroke-dasharray: none; stroke-linecap: butt; stroke-dashoffset: 0; stroke-linejoin: miter; stroke-miterlimit: 4; is-custom-font: none; font-file-url: none; fill: rgb(252,89,12); fill-rule: nonzero; opacity: 1;" points="4.29,0.535 -4.31,0.385 4.31,-0.535 4.29,0.535 "/>
</g>
		<g transform="matrix(1 0 0 1 -69.11 18.685)" id="Layer_1-2">
<polygon style="stroke: none; stroke-width: 1; stroke-dasharray: none; stroke-linecap: butt; stroke-dashoffset: 0; stroke-linejoin: miter; stroke-miterlimit: 4; is-custom-font: none; font-file-url: none; fill: rgb(252,89,12); fill-rule: nonzero; opacity: 1;" points="-4.24,-0.485 -4.09,0.485 4.24,0.395 -4.24,-0.485 "/>
</g>
		<g transform="matrix(1 0 0 1 -66.8063 -5.9552)" id="Layer_1-2">
<path style="stroke: none; stroke-width: 1; stroke-dasharray: none; stroke-linecap: butt; stroke-dashoffset: 0; stroke-linejoin: miter; stroke-miterlimit: 4; is-custom-font: none; font-file-url: none; fill: rgb(58,157,71); fill-rule: nonzero; opacity: 1;" transform=" translate(-19.1038, -15.0847)" d="M 20.22 19.33 L 18 11.66 A 0.69 0.69 0 0 1 19.12 11 h 0 a 0.75 0.75 0 0 1 0.21 0.44 Z" stroke-linecap="round"/>
</g>
</g>
</g>
</svg>